<?xml version="1.0" encoding="UTF-8"?>
<!DOCTYPE svg PUBLIC "-//W3C//DTD SVG 1.1//EN" "http://www.w3.org/Graphics/SVG/1.1/DTD/svg11.dtd">
<!-- Creator: CorelDRAW -->
<svg xmlns="http://www.w3.org/2000/svg" xml:space="preserve" width="40px" height="40px" version="1.1" style="shape-rendering:geometricPrecision; text-rendering:geometricPrecision; image-rendering:optimizeQuality; fill-rule:evenodd; clip-rule:evenodd"
viewBox="0 0 53.34 53.8"
 xmlns:xlink="http://www.w3.org/1999/xlink"
 xmlns:xodm="http://www.corel.com/coreldraw/odm/2003">
 <defs>
  <style type="text/css">
   <![CDATA[
    .str0 {stroke:black;stroke-width:1.37;stroke-miterlimit:10}
    .fil0 {fill:none;fill-rule:nonzero}
   ]]>
  </style>
 </defs>
 <g id="__x0023_Layer_x0020_1">
  <metadata id="CorelCorpID_0Corel-Layer"/>
  <path class="fil0 str0" d="M17.64 22.67c1.2,0 2.19,-0.98 2.19,-2.19"/>
  <line class="fil0 str0" x1="19.83" y1="20.48" x2="19.83" y2= "11.97" />
  <path class="fil0 str0" d="M19.83 11.97c0,-3.82 3.1,-6.92 6.9,-6.92 3.81,0 6.91,3.1 6.91,6.92"/>
  <line class="fil0 str0" x1="33.64" y1="11.97" x2="33.64" y2= "20.48" />
  <path class="fil0 str0" d="M33.64 20.48c0,1.21 0.98,2.19 2.19,2.19 1.2,0 2.19,-0.98 2.19,-2.19"/>
  <line class="fil0 str0" x1="38.02" y1="20.48" x2="38.02" y2= "11.97" />
  <path class="fil0 str0" d="M38.02 11.97c0,-6.22 -5.07,-11.29 -11.29,-11.29 -6.22,0 -11.27,5.07 -11.27,11.29"/>
  <line class="fil0 str0" x1="15.46" y1="11.97" x2="15.46" y2= "20.48" />
  <path class="fil0 str0" d="M15.46 20.48c0,1.21 0.97,2.19 2.18,2.19"/>
  <polyline class="fil0 str0" points="51.8,17.76 40.2,17.76 40.2,20.48 "/>
  <path class="fil0 str0" d="M40.2 20.48c0,2.41 -1.96,4.37 -4.37,4.37 -2.41,0 -4.37,-1.96 -4.37,-4.37"/>
  <polyline class="fil0 str0" points="31.46,20.48 31.46,17.76 22.01,17.76 22.01,20.48 "/>
  <path class="fil0 str0" d="M22.01 20.48c0,2.41 -1.96,4.37 -4.37,4.37 -2.41,0 -4.37,-1.96 -4.37,-4.37"/>
  <polyline class="fil0 str0" points="13.27,20.48 13.27,17.76 1.55,17.76 "/>
  <path class="fil0 str0" d="M1.55 17.76c-0.61,0 -0.98,0.47 -0.84,1.06"/>
  <line class="fil0 str0" x1="0.71" y1="18.82" x2="8.36" y2= "49.95" />
  <path class="fil0 str0" d="M8.36 49.95c0.46,1.75 2.3,3.17 4.11,3.17"/>
  <line class="fil0 str0" x1="12.47" y1="53.12" x2="40.87" y2= "53.12" />
  <path class="fil0 str0" d="M40.87 53.12c1.81,0 3.65,-1.42 4.12,-3.17"/>
  <line class="fil0 str0" x1="44.99" y1="49.95" x2="52.63" y2= "18.82" />
  <path class="fil0 str0" d="M52.63 18.82c0.14,-0.59 -0.23,-1.06 -0.83,-1.06"/>
 </g>
</svg>
