<?xml version="1.0" encoding="UTF-8"?>
<!DOCTYPE svg PUBLIC "-//W3C//DTD SVG 1.1//EN" "http://www.w3.org/Graphics/SVG/1.1/DTD/svg11.dtd">
<!-- Creator: CorelDRAW -->
<svg xmlns="http://www.w3.org/2000/svg" xml:space="preserve" width="36px" height="36px" version="1.1" style="shape-rendering:geometricPrecision; text-rendering:geometricPrecision; image-rendering:optimizeQuality; fill-rule:evenodd; clip-rule:evenodd"
viewBox="0 0 33.2 33.49"
 xmlns:xlink="http://www.w3.org/1999/xlink"
 xmlns:xodm="http://www.corel.com/coreldraw/odm/2003">
 <defs>
  <style type="text/css">
   <![CDATA[
    .fil0 {fill:#ffffff;fill-rule:nonzero}
   ]]>
  </style>
 </defs>
 <g id="__x0023_Layer_x0020_1">
  <metadata id="CorelCorpID_0Corel-Layer"/>
  <path class="fil0" d="M10.83 14.04c0.77,0 1.4,-0.62 1.4,-1.39l0 -5.44c0,-2.44 1.98,-4.42 4.41,-4.42 2.43,0 4.41,1.98 4.41,4.42l0 5.44c0,0.77 0.63,1.39 1.4,1.39 0.77,0 1.39,-0.62 1.39,-1.39l0 -5.44c0,-3.98 -3.23,-7.21 -7.2,-7.21 -3.97,0 -7.2,3.23 -7.2,7.21l0 5.44c0,0.77 0.62,1.39 1.39,1.39z"/>
  <path class="fil0" d="M32.65 10.9l-7.41 0 0 1.75c0,1.54 -1.25,2.79 -2.79,2.79 -1.54,0 -2.79,-1.25 -2.79,-2.79l0 -1.75 -6.04 0 0 1.75c0,1.54 -1.25,2.79 -2.79,2.79 -1.54,0 -2.79,-1.25 -2.79,-2.79l0 -1.75 -7.49 0c-0.38,0 -0.62,0.31 -0.53,0.68l4.88 19.88c0.29,1.12 1.47,2.03 2.63,2.03l18.14 0c1.15,0 2.33,-0.91 2.63,-2.03l4.88 -19.88c0.09,-0.37 -0.15,-0.68 -0.53,-0.68z"/>
 </g>
</svg>
