<?xml version="1.0" encoding="UTF-8"?>
<!DOCTYPE svg PUBLIC "-//W3C//DTD SVG 1.1//EN" "http://www.w3.org/Graphics/SVG/1.1/DTD/svg11.dtd">
<!-- Creator: CorelDRAW -->
<svg xmlns="http://www.w3.org/2000/svg" xml:space="preserve" width="2480px" height="3508px" version="1.1" style="shape-rendering:geometricPrecision; text-rendering:geometricPrecision; image-rendering:optimizeQuality; fill-rule:evenodd; clip-rule:evenodd"
viewBox="0 0 2480 3507.43"
 xmlns:xlink="http://www.w3.org/1999/xlink">
 <defs>
  <style type="text/css">
   <![CDATA[
    .str0 {stroke:#2B2B2A;stroke-width:2.36;stroke-miterlimit:22.9256}
    .fil1 {fill:#7688A1}
    .fil0 {fill:#333333}
    .fil2 {fill:#7FA176}
    .fil3 {fill:#F2DC13}
   ]]>
  </style>
 </defs>
 <g id="Layer_x0020_1">
  <metadata id="CorelCorpID_0Corel-Layer"/>
  <path class="fil0" d="M1276.91 1805.27l-73.82 0c-0.43,0 -0.84,-0.17 -1.13,-0.48 -0.29,-0.31 -0.45,-0.73 -0.43,-1.16l3.51 -73.82c0.05,-0.83 0.73,-1.48 1.57,-1.48l66.79 0c0.83,0 1.52,0.65 1.56,1.48l3.51 73.82c0.02,0.43 -0.13,0.85 -0.43,1.16 -0.29,0.31 -0.7,0.48 -1.13,0.48zm-72.18 -3.12l70.54 0 -3.36 -70.7 -63.82 0 -3.36 70.7z"/>
  <path class="fil0" d="M1256.89 1737.7c-0.86,0 -1.56,-0.7 -1.56,-1.56l0 -15.53c0,-8.45 -6.88,-15.33 -15.33,-15.33 -8.45,0 -15.33,6.88 -15.33,15.33l0 15.53c0,0.86 -0.7,1.56 -1.56,1.56 -0.86,0 -1.56,-0.7 -1.56,-1.56l0 -15.53c0,-10.17 8.28,-18.45 18.45,-18.45 10.17,0 18.45,8.28 18.45,18.45l0 15.53c0,0.86 -0.7,1.56 -1.56,1.56z"/>
  <path class="fil1 str0" d="M1256.89 1737.7c-0.86,0 -1.56,-0.7 -1.56,-1.56l0 -4.69 -30.66 0 0 4.69c0,0.86 -0.7,1.56 -1.56,1.56 -0.86,0 -1.56,-0.7 -1.56,-1.56l0 -4.69 -13.46 0 -3.36 70.7 70.54 0 -3.36 -70.7 -13.46 0 0 4.69c0,0.86 -0.7,1.56 -1.56,1.56z"/>
  <path class="fil2 str0" d="M1256.89 1737.7c-0.86,0 -1.56,-0.7 -1.56,-1.56l0 -4.69 -30.66 0 0 4.69c0,0.86 -0.7,1.56 -1.56,1.56 -0.86,0 -1.56,-0.7 -1.56,-1.56l0 -4.69 -13.46 0 -3.36 70.7 70.54 0 -3.36 -70.7 -13.46 0 0 4.69c0,0.86 -0.7,1.56 -1.56,1.56z"/>
  <path class="fil3 str0" d="M1256.89 1737.7c-0.86,0 -1.56,-0.7 -1.56,-1.56l0 -4.69 -30.66 0 0 4.69c0,0.86 -0.7,1.56 -1.56,1.56 -0.86,0 -1.56,-0.7 -1.56,-1.56l0 -4.69 -13.46 0 -3.36 70.7 70.54 0 -3.36 -70.7 -13.46 0 0 4.69c0,0.86 -0.7,1.56 -1.56,1.56z"/>
 </g>
</svg>
